<svg id="facebook" xmlns="http://www.w3.org/2000/svg" width="32" height="31.998" viewBox="0 0 32 31.998">
  <path id="Path_1" data-name="Path 1" d="M192.084,195.06a15.987,15.987,0,1,1-15.207-11.05A15.994,15.994,0,0,1,192.084,195.06Zm-15.207-9.608a14.557,14.557,0,1,0,13.864,10.054A14.555,14.555,0,0,0,176.877,185.453Z" transform="translate(-160.873 -184.01)" fill="#fff"/>
  <path id="Path_2" data-name="Path 2" d="M198.338,206.936h1.786v-2.712c-.279,0-.566-.065-.865-.084h-1.6a3.966,3.966,0,0,0-2.265.7,3.4,3.4,0,0,0-1.358,2.255,7.908,7.908,0,0,0-.107,1.086v2.13h-2.6v3.021H193.9v7.589h3.206V213.3h2.574l.31-2.991H197v-2.13A1.2,1.2,0,0,1,198.338,206.936Z" transform="translate(-179.714 -196.439)" fill="#fff" fill-rule="evenodd"/>
</svg>
