<svg id="instagram" xmlns="http://www.w3.org/2000/svg" width="32.002" height="32.002" viewBox="0 0 32.002 32.002">
  <path id="Path_3" data-name="Path 3" d="M79.691,184.03a16,16,0,1,0,16,16A16,16,0,0,0,79.691,184.03Zm0,30.776A14.771,14.771,0,1,1,93.164,206.1,14.768,14.768,0,0,1,79.691,214.806Z" transform="translate(-63.69 -184.03)" fill="#fff"/>
  <path id="Path_4" data-name="Path 4" d="M96.57,203.25H86.733a3.66,3.66,0,0,0-3.693,3.6v10.124a3.647,3.647,0,0,0,3.689,3.6h9.826a3.65,3.65,0,0,0,3.693-3.6h0V206.855A3.644,3.644,0,0,0,96.57,203.25Zm2.207,13.729a2.133,2.133,0,0,1-2.131,2.135H86.733a2.134,2.134,0,0,1-2.207-2.058v-10.2a2.133,2.133,0,0,1,2.131-2.135h9.9a2.134,2.134,0,0,1,2.207,2.058v.076Z" transform="translate(-75.651 -195.91)" fill="#fff"/>
  <path id="Path_5" data-name="Path 5" d="M98.3,214.14a4.5,4.5,0,1,0,4.5,4.5,4.5,4.5,0,0,0-4.5-4.5Zm0,7.47a3.009,3.009,0,1,1,3.009-3.009v.042a3.023,3.023,0,0,1-3.009,3.009Z" transform="translate(-82.301 -202.641)" fill="#fff"/>
  <ellipse id="Ellipse_1" data-name="Ellipse 1" cx="1.058" cy="1.058" rx="1.058" ry="1.058" transform="translate(19.774 10.215)" fill="#fff"/>
</svg>
